# KAL target mesh, metres, +X forward +Y port +Z up
v 1.55596 -0.02018 0.00000
v 1.55596 -0.01950 0.00522
v 1.55596 -0.01748 0.01009
v 1.55596 -0.01427 0.01427
v 1.55596 -0.01009 0.01748
v 1.55596 -0.00522 0.01950
v 1.55596 -0.00000 0.02018
v 1.55596 0.00522 0.01950
v 1.55596 0.01009 0.01748
v 1.55596 0.01427 0.01427
v 1.55596 0.01748 0.01009
v 1.55596 0.01950 0.00522
v 1.55596 0.02018 0.00000
v 1.55596 0.01950 -0.00522
v 1.55596 0.01748 -0.01009
v 1.55596 0.01427 -0.01427
v 1.55596 0.01009 -0.01748
v 1.55596 0.00522 -0.01950
v 1.55596 0.00000 -0.02018
v 1.55596 -0.00522 -0.01950
v 1.55596 -0.01009 -0.01748
v 1.55596 -0.01427 -0.01427
v 1.55596 -0.01748 -0.01009
v 1.55596 -0.01950 -0.00522
v 1.54241 -0.05249 0.00000
v 1.54241 -0.05070 0.01359
v 1.54241 -0.04546 0.02625
v 1.54241 -0.03712 0.03712
v 1.54241 -0.02625 0.04546
v 1.54241 -0.01359 0.05070
v 1.54241 -0.00000 0.05249
v 1.54241 0.01359 0.05070
v 1.54241 0.02625 0.04546
v 1.54241 0.03712 0.03712
v 1.54241 0.04546 0.02625
v 1.54241 0.05070 0.01359
v 1.54241 0.05249 0.00000
v 1.54241 0.05070 -0.01359
v 1.54241 0.04546 -0.02625
v 1.54241 0.03712 -0.03712
v 1.54241 0.02625 -0.04546
v 1.54241 0.01359 -0.05070
v 1.54241 0.00000 -0.05249
v 1.54241 -0.01359 -0.05070
v 1.54241 -0.02625 -0.04546
v 1.54241 -0.03712 -0.03712
v 1.54241 -0.04546 -0.02625
v 1.54241 -0.05070 -0.01359
v 1.51723 -0.08258 0.00000
v 1.51723 -0.07976 0.02137
v 1.51723 -0.07151 0.04129
v 1.51723 -0.05839 0.05839
v 1.51723 -0.04129 0.07151
v 1.51723 -0.02137 0.07976
v 1.51723 -0.00000 0.08258
v 1.51723 0.02137 0.07976
v 1.51723 0.04129 0.07151
v 1.51723 0.05839 0.05839
v 1.51723 0.07151 0.04129
v 1.51723 0.07976 0.02137
v 1.51723 0.08258 0.00000
v 1.51723 0.07976 -0.02137
v 1.51723 0.07151 -0.04129
v 1.51723 0.05839 -0.05839
v 1.51723 0.04129 -0.07151
v 1.51723 0.02137 -0.07976
v 1.51723 0.00000 -0.08258
v 1.51723 -0.02137 -0.07976
v 1.51723 -0.04129 -0.07151
v 1.51723 -0.05839 -0.05839
v 1.51723 -0.07151 -0.04129
v 1.51723 -0.07976 -0.02137
v 1.48148 -0.10915 0.00000
v 1.48148 -0.10543 0.02825
v 1.48148 -0.09453 0.05458
v 1.48148 -0.07718 0.07718
v 1.48148 -0.05458 0.09453
v 1.48148 -0.02825 0.10543
v 1.48148 -0.00000 0.10915
v 1.48148 0.02825 0.10543
v 1.48148 0.05458 0.09453
v 1.48148 0.07718 0.07718
v 1.48148 0.09453 0.05458
v 1.48148 0.10543 0.02825
v 1.48148 0.10915 0.00000
v 1.48148 0.10543 -0.02825
v 1.48148 0.09453 -0.05458
v 1.48148 0.07718 -0.07718
v 1.48148 0.05458 -0.09453
v 1.48148 0.02825 -0.10543
v 1.48148 0.00000 -0.10915
v 1.48148 -0.02825 -0.10543
v 1.48148 -0.05458 -0.09453
v 1.48148 -0.07718 -0.07718
v 1.48148 -0.09453 -0.05458
v 1.48148 -0.10543 -0.02825
v 1.43668 -0.13110 0.00000
v 1.43668 -0.12663 0.03393
v 1.43668 -0.11353 0.06555
v 1.43668 -0.09270 0.09270
v 1.43668 -0.06555 0.11353
v 1.43668 -0.03393 0.12663
v 1.43668 -0.00000 0.13110
v 1.43668 0.03393 0.12663
v 1.43668 0.06555 0.11353
v 1.43668 0.09270 0.09270
v 1.43668 0.11353 0.06555
v 1.43668 0.12663 0.03393
v 1.43668 0.13110 0.00000
v 1.43668 0.12663 -0.03393
v 1.43668 0.11353 -0.06555
v 1.43668 0.09270 -0.09270
v 1.43668 0.06555 -0.11353
v 1.43668 0.03393 -0.12663
v 1.43668 0.00000 -0.13110
v 1.43668 -0.03393 -0.12663
v 1.43668 -0.06555 -0.11353
v 1.43668 -0.09270 -0.09270
v 1.43668 -0.11353 -0.06555
v 1.43668 -0.12663 -0.03393
v 1.38474 -0.14747 0.00000
v 1.38474 -0.14245 0.03817
v 1.38474 -0.12771 0.07374
v 1.38474 -0.10428 0.10428
v 1.38474 -0.07374 0.12771
v 1.38474 -0.03817 0.14245
v 1.38474 -0.00000 0.14747
v 1.38474 0.03817 0.14245
v 1.38474 0.07374 0.12771
v 1.38474 0.10428 0.10428
v 1.38474 0.12771 0.07374
v 1.38474 0.14245 0.03817
v 1.38474 0.14747 0.00000
v 1.38474 0.14245 -0.03817
v 1.38474 0.12771 -0.07374
v 1.38474 0.10428 -0.10428
v 1.38474 0.07374 -0.12771
v 1.38474 0.03817 -0.14245
v 1.38474 0.00000 -0.14747
v 1.38474 -0.03817 -0.14245
v 1.38474 -0.07374 -0.12771
v 1.38474 -0.10428 -0.10428
v 1.38474 -0.12771 -0.07374
v 1.38474 -0.14245 -0.03817
v 1.32785 -0.15758 0.00000
v 1.32785 -0.15221 0.04079
v 1.32785 -0.13647 0.07879
v 1.32785 -0.11143 0.11143
v 1.32785 -0.07879 0.13647
v 1.32785 -0.04079 0.15221
v 1.32785 -0.00000 0.15758
v 1.32785 0.04079 0.15221
v 1.32785 0.07879 0.13647
v 1.32785 0.11143 0.11143
v 1.32785 0.13647 0.07879
v 1.32785 0.15221 0.04079
v 1.32785 0.15758 0.00000
v 1.32785 0.15221 -0.04079
v 1.32785 0.13647 -0.07879
v 1.32785 0.11143 -0.11143
v 1.32785 0.07879 -0.13647
v 1.32785 0.04079 -0.15221
v 1.32785 0.00000 -0.15758
v 1.32785 -0.04079 -0.15221
v 1.32785 -0.07879 -0.13647
v 1.32785 -0.11143 -0.11143
v 1.32785 -0.13647 -0.07879
v 1.32785 -0.15221 -0.04079
v 1.26845 -0.16100 0.00000
v 1.26845 -0.15551 0.04167
v 1.26845 -0.13943 0.08050
v 1.26845 -0.11384 0.11384
v 1.26845 -0.08050 0.13943
v 1.26845 -0.04167 0.15551
v 1.26845 -0.00000 0.16100
v 1.26845 0.04167 0.15551
v 1.26845 0.08050 0.13943
v 1.26845 0.11384 0.11384
v 1.26845 0.13943 0.08050
v 1.26845 0.15551 0.04167
v 1.26845 0.16100 0.00000
v 1.26845 0.15551 -0.04167
v 1.26845 0.13943 -0.08050
v 1.26845 0.11384 -0.11384
v 1.26845 0.08050 -0.13943
v 1.26845 0.04167 -0.15551
v 1.26845 0.00000 -0.16100
v 1.26845 -0.04167 -0.15551
v 1.26845 -0.08050 -0.13943
v 1.26845 -0.11384 -0.11384
v 1.26845 -0.13943 -0.08050
v 1.26845 -0.15551 -0.04167
v 0.73899 -0.16100 0.00000
v 0.73899 -0.15551 0.04167
v 0.73899 -0.13943 0.08050
v 0.73899 -0.11384 0.11384
v 0.73899 -0.08050 0.13943
v 0.73899 -0.04167 0.15551
v 0.73899 -0.00000 0.16100
v 0.73899 0.04167 0.15551
v 0.73899 0.08050 0.13943
v 0.73899 0.11384 0.11384
v 0.73899 0.13943 0.08050
v 0.73899 0.15551 0.04167
v 0.73899 0.16100 0.00000
v 0.73899 0.15551 -0.04167
v 0.73899 0.13943 -0.08050
v 0.73899 0.11384 -0.11384
v 0.73899 0.08050 -0.13943
v 0.73899 0.04167 -0.15551
v 0.73899 0.00000 -0.16100
v 0.73899 -0.04167 -0.15551
v 0.73899 -0.08050 -0.13943
v 0.73899 -0.11384 -0.11384
v 0.73899 -0.13943 -0.08050
v 0.73899 -0.15551 -0.04167
v 0.69299 -0.16100 0.00000
v 0.69299 -0.15551 0.04167
v 0.69299 -0.13943 0.08050
v 0.69299 -0.11384 0.11384
v 0.69299 -0.08050 0.13943
v 0.69299 -0.04167 0.15551
v 0.69299 -0.00000 0.16100
v 0.69299 0.04167 0.15551
v 0.69299 0.08050 0.13943
v 0.69299 0.11384 0.11384
v 0.69299 0.13943 0.08050
v 0.69299 0.15551 0.04167
v 0.69299 0.16100 0.00000
v 0.69299 0.15551 -0.04167
v 0.69299 0.13943 -0.08050
v 0.69299 0.11384 -0.11384
v 0.69299 0.08050 -0.13943
v 0.69299 0.04167 -0.15551
v 0.69299 0.00000 -0.16100
v 0.69299 -0.04167 -0.15551
v 0.69299 -0.08050 -0.13943
v 0.69299 -0.11384 -0.11384
v 0.69299 -0.13943 -0.08050
v 0.69299 -0.15551 -0.04167
v 0.66999 -0.16100 0.00000
v 0.66999 -0.15551 0.04167
v 0.66999 -0.13943 0.08050
v 0.66999 -0.11384 0.11384
v 0.66999 -0.08050 0.13943
v 0.66999 -0.04167 0.15551
v 0.66999 -0.00000 0.16100
v 0.66999 0.04167 0.15551
v 0.66999 0.08050 0.13943
v 0.66999 0.11384 0.11384
v 0.66999 0.13943 0.08050
v 0.66999 0.15551 0.04167
v 0.66999 0.16100 0.00000
v 0.66999 0.15551 -0.04167
v 0.66999 0.13943 -0.08050
v 0.66999 0.11384 -0.11384
v 0.66999 0.08050 -0.13943
v 0.66999 0.04167 -0.15551
v 0.66999 0.00000 -0.16100
v 0.66999 -0.04167 -0.15551
v 0.66999 -0.08050 -0.13943
v 0.66999 -0.11384 -0.11384
v 0.66999 -0.13943 -0.08050
v 0.66999 -0.15551 -0.04167
v 0.63549 -0.11592 0.00000
v 0.63549 -0.11197 0.03000
v 0.63549 -0.10039 0.05796
v 0.63549 -0.08197 0.08197
v 0.63549 -0.05796 0.10039
v 0.63549 -0.03000 0.11197
v 0.63549 -0.00000 0.11592
v 0.63549 0.03000 0.11197
v 0.63549 0.05796 0.10039
v 0.63549 0.08197 0.08197
v 0.63549 0.10039 0.05796
v 0.63549 0.11197 0.03000
v 0.63549 0.11592 0.00000
v 0.63549 0.11197 -0.03000
v 0.63549 0.10039 -0.05796
v 0.63549 0.08197 -0.08197
v 0.63549 0.05796 -0.10039
v 0.63549 0.03000 -0.11197
v 0.63549 0.00000 -0.11592
v 0.63549 -0.03000 -0.11197
v 0.63549 -0.05796 -0.10039
v 0.63549 -0.08197 -0.08197
v 0.63549 -0.10039 -0.05796
v 0.63549 -0.11197 -0.03000
v 0.27608 -0.11592 0.00000
v 0.27608 -0.11197 0.03000
v 0.27608 -0.10039 0.05796
v 0.27608 -0.08197 0.08197
v 0.27608 -0.05796 0.10039
v 0.27608 -0.03000 0.11197
v 0.27608 -0.00000 0.11592
v 0.27608 0.03000 0.11197
v 0.27608 0.05796 0.10039
v 0.27608 0.08197 0.08197
v 0.27608 0.10039 0.05796
v 0.27608 0.11197 0.03000
v 0.27608 0.11592 0.00000
v 0.27608 0.11197 -0.03000
v 0.27608 0.10039 -0.05796
v 0.27608 0.08197 -0.08197
v 0.27608 0.05796 -0.10039
v 0.27608 0.03000 -0.11197
v 0.27608 0.00000 -0.11592
v 0.27608 -0.03000 -0.11197
v 0.27608 -0.05796 -0.10039
v 0.27608 -0.08197 -0.08197
v 0.27608 -0.10039 -0.05796
v 0.27608 -0.11197 -0.03000
v -0.08334 -0.11592 0.00000
v -0.08334 -0.11197 0.03000
v -0.08334 -0.10039 0.05796
v -0.08334 -0.08197 0.08197
v -0.08334 -0.05796 0.10039
v -0.08334 -0.03000 0.11197
v -0.08334 -0.00000 0.11592
v -0.08334 0.03000 0.11197
v -0.08334 0.05796 0.10039
v -0.08334 0.08197 0.08197
v -0.08334 0.10039 0.05796
v -0.08334 0.11197 0.03000
v -0.08334 0.11592 0.00000
v -0.08334 0.11197 -0.03000
v -0.08334 0.10039 -0.05796
v -0.08334 0.08197 -0.08197
v -0.08334 0.05796 -0.10039
v -0.08334 0.03000 -0.11197
v -0.08334 0.00000 -0.11592
v -0.08334 -0.03000 -0.11197
v -0.08334 -0.05796 -0.10039
v -0.08334 -0.08197 -0.08197
v -0.08334 -0.10039 -0.05796
v -0.08334 -0.11197 -0.03000
v -0.44275 -0.11592 0.00000
v -0.44275 -0.11197 0.03000
v -0.44275 -0.10039 0.05796
v -0.44275 -0.08197 0.08197
v -0.44275 -0.05796 0.10039
v -0.44275 -0.03000 0.11197
v -0.44275 -0.00000 0.11592
v -0.44275 0.03000 0.11197
v -0.44275 0.05796 0.10039
v -0.44275 0.08197 0.08197
v -0.44275 0.10039 0.05796
v -0.44275 0.11197 0.03000
v -0.44275 0.11592 0.00000
v -0.44275 0.11197 -0.03000
v -0.44275 0.10039 -0.05796
v -0.44275 0.08197 -0.08197
v -0.44275 0.05796 -0.10039
v -0.44275 0.03000 -0.11197
v -0.44275 0.00000 -0.11592
v -0.44275 -0.03000 -0.11197
v -0.44275 -0.05796 -0.10039
v -0.44275 -0.08197 -0.08197
v -0.44275 -0.10039 -0.05796
v -0.44275 -0.11197 -0.03000
v -0.51750 -0.12824 0.00000
v -0.51750 -0.12387 0.03319
v -0.51750 -0.11106 0.06412
v -0.51750 -0.09068 0.09068
v -0.51750 -0.06412 0.11106
v -0.51750 -0.03319 0.12387
v -0.51750 -0.00000 0.12824
v -0.51750 0.03319 0.12387
v -0.51750 0.06412 0.11106
v -0.51750 0.09068 0.09068
v -0.51750 0.11106 0.06412
v -0.51750 0.12387 0.03319
v -0.51750 0.12824 0.00000
v -0.51750 0.12387 -0.03319
v -0.51750 0.11106 -0.06412
v -0.51750 0.09068 -0.09068
v -0.51750 0.06412 -0.11106
v -0.51750 0.03319 -0.12387
v -0.51750 0.00000 -0.12824
v -0.51750 -0.03319 -0.12387
v -0.51750 -0.06412 -0.11106
v -0.51750 -0.09068 -0.09068
v -0.51750 -0.11106 -0.06412
v -0.51750 -0.12387 -0.03319
v -0.59225 -0.13869 0.00000
v -0.59225 -0.13396 0.03590
v -0.59225 -0.12011 0.06934
v -0.59225 -0.09807 0.09807
v -0.59225 -0.06934 0.12011
v -0.59225 -0.03590 0.13396
v -0.59225 -0.00000 0.13869
v -0.59225 0.03590 0.13396
v -0.59225 0.06934 0.12011
v -0.59225 0.09807 0.09807
v -0.59225 0.12011 0.06934
v -0.59225 0.13396 0.03590
v -0.59225 0.13869 0.00000
v -0.59225 0.13396 -0.03590
v -0.59225 0.12011 -0.06934
v -0.59225 0.09807 -0.09807
v -0.59225 0.06934 -0.12011
v -0.59225 0.03590 -0.13396
v -0.59225 0.00000 -0.13869
v -0.59225 -0.03590 -0.13396
v -0.59225 -0.06934 -0.12011
v -0.59225 -0.09807 -0.09807
v -0.59225 -0.12011 -0.06934
v -0.59225 -0.13396 -0.03590
v -0.66700 -0.14567 0.00000
v -0.66700 -0.14071 0.03770
v -0.66700 -0.12615 0.07283
v -0.66700 -0.10300 0.10300
v -0.66700 -0.07283 0.12615
v -0.66700 -0.03770 0.14071
v -0.66700 -0.00000 0.14567
v -0.66700 0.03770 0.14071
v -0.66700 0.07283 0.12615
v -0.66700 0.10300 0.10300
v -0.66700 0.12615 0.07283
v -0.66700 0.14071 0.03770
v -0.66700 0.14567 0.00000
v -0.66700 0.14071 -0.03770
v -0.66700 0.12615 -0.07283
v -0.66700 0.10300 -0.10300
v -0.66700 0.07283 -0.12615
v -0.66700 0.03770 -0.14071
v -0.66700 0.00000 -0.14567
v -0.66700 -0.03770 -0.14071
v -0.66700 -0.07283 -0.12615
v -0.66700 -0.10300 -0.10300
v -0.66700 -0.12615 -0.07283
v -0.66700 -0.14071 -0.03770
v -0.74175 -0.14812 0.00000
v -0.74175 -0.14307 0.03834
v -0.74175 -0.12828 0.07406
v -0.74175 -0.10474 0.10474
v -0.74175 -0.07406 0.12828
v -0.74175 -0.03834 0.14307
v -0.74175 -0.00000 0.14812
v -0.74175 0.03834 0.14307
v -0.74175 0.07406 0.12828
v -0.74175 0.10474 0.10474
v -0.74175 0.12828 0.07406
v -0.74175 0.14307 0.03834
v -0.74175 0.14812 0.00000
v -0.74175 0.14307 -0.03834
v -0.74175 0.12828 -0.07406
v -0.74175 0.10474 -0.10474
v -0.74175 0.07406 -0.12828
v -0.74175 0.03834 -0.14307
v -0.74175 0.00000 -0.14812
v -0.74175 -0.03834 -0.14307
v -0.74175 -0.07406 -0.12828
v -0.74175 -0.10474 -0.10474
v -0.74175 -0.12828 -0.07406
v -0.74175 -0.14307 -0.03834
v -0.85100 -0.14236 0.00000
v -0.85100 -0.13751 0.03685
v -0.85100 -0.12329 0.07118
v -0.85100 -0.10066 0.10066
v -0.85100 -0.07118 0.12329
v -0.85100 -0.03685 0.13751
v -0.85100 -0.00000 0.14236
v -0.85100 0.03685 0.13751
v -0.85100 0.07118 0.12329
v -0.85100 0.10066 0.10066
v -0.85100 0.12329 0.07118
v -0.85100 0.13751 0.03685
v -0.85100 0.14236 0.00000
v -0.85100 0.13751 -0.03685
v -0.85100 0.12329 -0.07118
v -0.85100 0.10066 -0.10066
v -0.85100 0.07118 -0.12329
v -0.85100 0.03685 -0.13751
v -0.85100 0.00000 -0.14236
v -0.85100 -0.03685 -0.13751
v -0.85100 -0.07118 -0.12329
v -0.85100 -0.10066 -0.10066
v -0.85100 -0.12329 -0.07118
v -0.85100 -0.13751 -0.03685
v -0.96025 -0.12596 0.00000
v -0.96025 -0.12166 0.03260
v -0.96025 -0.10908 0.06298
v -0.96025 -0.08906 0.08906
v -0.96025 -0.06298 0.10908
v -0.96025 -0.03260 0.12166
v -0.96025 -0.00000 0.12596
v -0.96025 0.03260 0.12166
v -0.96025 0.06298 0.10908
v -0.96025 0.08906 0.08906
v -0.96025 0.10908 0.06298
v -0.96025 0.12166 0.03260
v -0.96025 0.12596 0.00000
v -0.96025 0.12166 -0.03260
v -0.96025 0.10908 -0.06298
v -0.96025 0.08906 -0.08906
v -0.96025 0.06298 -0.10908
v -0.96025 0.03260 -0.12166
v -0.96025 0.00000 -0.12596
v -0.96025 -0.03260 -0.12166
v -0.96025 -0.06298 -0.10908
v -0.96025 -0.08906 -0.08906
v -0.96025 -0.10908 -0.06298
v -0.96025 -0.12166 -0.03260
v -1.06950 -0.10141 0.00000
v -1.06950 -0.09795 0.02625
v -1.06950 -0.08782 0.05070
v -1.06950 -0.07171 0.07171
v -1.06950 -0.05070 0.08782
v -1.06950 -0.02625 0.09795
v -1.06950 -0.00000 0.10141
v -1.06950 0.02625 0.09795
v -1.06950 0.05070 0.08782
v -1.06950 0.07171 0.07171
v -1.06950 0.08782 0.05070
v -1.06950 0.09795 0.02625
v -1.06950 0.10141 0.00000
v -1.06950 0.09795 -0.02625
v -1.06950 0.08782 -0.05070
v -1.06950 0.07171 -0.07171
v -1.06950 0.05070 -0.08782
v -1.06950 0.02625 -0.09795
v -1.06950 0.00000 -0.10141
v -1.06950 -0.02625 -0.09795
v -1.06950 -0.05070 -0.08782
v -1.06950 -0.07171 -0.07171
v -1.06950 -0.08782 -0.05070
v -1.06950 -0.09795 -0.02625
v -1.17875 -0.07245 0.00000
v -1.17875 -0.06998 0.01875
v -1.17875 -0.06274 0.03623
v -1.17875 -0.05123 0.05123
v -1.17875 -0.03623 0.06274
v -1.17875 -0.01875 0.06998
v -1.17875 -0.00000 0.07245
v -1.17875 0.01875 0.06998
v -1.17875 0.03622 0.06274
v -1.17875 0.05123 0.05123
v -1.17875 0.06274 0.03623
v -1.17875 0.06998 0.01875
v -1.17875 0.07245 0.00000
v -1.17875 0.06998 -0.01875
v -1.17875 0.06274 -0.03622
v -1.17875 0.05123 -0.05123
v -1.17875 0.03623 -0.06274
v -1.17875 0.01875 -0.06998
v -1.17875 0.00000 -0.07245
v -1.17875 -0.01875 -0.06998
v -1.17875 -0.03622 -0.06274
v -1.17875 -0.05123 -0.05123
v -1.17875 -0.06274 -0.03623
v -1.17875 -0.06998 -0.01875
v -1.27075 -0.07245 0.00000
v -1.27075 -0.06998 0.01875
v -1.27075 -0.06274 0.03623
v -1.27075 -0.05123 0.05123
v -1.27075 -0.03623 0.06274
v -1.27075 -0.01875 0.06998
v -1.27075 -0.00000 0.07245
v -1.27075 0.01875 0.06998
v -1.27075 0.03622 0.06274
v -1.27075 0.05123 0.05123
v -1.27075 0.06274 0.03623
v -1.27075 0.06998 0.01875
v -1.27075 0.07245 0.00000
v -1.27075 0.06998 -0.01875
v -1.27075 0.06274 -0.03622
v -1.27075 0.05123 -0.05123
v -1.27075 0.03623 -0.06274
v -1.27075 0.01875 -0.06998
v -1.27075 0.00000 -0.07245
v -1.27075 -0.01875 -0.06998
v -1.27075 -0.03622 -0.06274
v -1.27075 -0.05123 -0.05123
v -1.27075 -0.06274 -0.03623
v -1.27075 -0.06998 -0.01875
v 1.55825 -0.00000 0.00000
v -0.97175 1.15000 0.00000
v -0.97402 1.15000 0.00256
v -0.98076 1.15000 0.00492
v -0.99180 1.15000 0.00703
v -1.00689 1.15000 0.00880
v -1.02564 1.15000 0.01019
v -1.04760 1.15000 0.01115
v -1.07222 1.15000 0.01165
v -1.09889 1.15000 0.01170
v -1.12697 1.15000 0.01136
v -1.15575 1.15000 0.01068
v -1.22475 1.15000 0.00809
v -1.29375 1.15000 0.00450
v -1.36275 1.15000 0.00000
v -1.29375 1.15000 -0.00450
v -1.22475 1.15000 -0.00809
v -1.15575 1.15000 -0.01068
v -1.12697 1.15000 -0.01136
v -1.09889 1.15000 -0.01170
v -1.07222 1.15000 -0.01165
v -1.04760 1.15000 -0.01115
v -1.02564 1.15000 -0.01019
v -1.00689 1.15000 -0.00880
v -0.99180 1.15000 -0.00703
v -0.98076 1.15000 -0.00492
v -0.97402 1.15000 -0.00256
v -0.81903 1.05800 0.00000
v -0.82318 1.05800 0.00407
v -0.83551 1.05800 0.00776
v -0.85573 1.05800 0.01095
v -0.88334 1.05800 0.01350
v -0.91765 1.05800 0.01527
v -0.95783 1.05800 0.01618
v -1.00288 1.05800 0.01623
v -1.05170 1.05800 0.01545
v -1.10308 1.05800 0.01397
v -1.15575 1.05800 0.01192
v -1.22475 1.05800 0.00859
v -1.29375 1.05800 0.00463
v -1.36275 1.05800 0.00000
v -1.29375 1.05800 -0.00463
v -1.22475 1.05800 -0.00859
v -1.15575 1.05800 -0.01192
v -1.10308 1.05800 -0.01397
v -1.05170 1.05800 -0.01545
v -1.00288 1.05800 -0.01623
v -0.95783 1.05800 -0.01618
v -0.91765 1.05800 -0.01527
v -0.88334 1.05800 -0.01350
v -0.85573 1.05800 -0.01095
v -0.83551 1.05800 -0.00776
v -0.82318 1.05800 -0.00407
v -0.55177 0.89700 0.00000
v -0.55921 0.89700 0.00663
v -0.58133 0.89700 0.01256
v -0.61760 0.89700 0.01756
v -0.66712 0.89700 0.02134
v -0.72867 0.89700 0.02364
v -0.80074 0.89700 0.02433
v -0.88155 0.89700 0.02341
v -0.96911 0.89700 0.02105
v -1.06127 0.89700 0.01746
v -1.15575 0.89700 0.01288
v -1.22475 0.89700 0.00903
v -1.29375 0.89700 0.00475
v -1.36275 0.89700 0.00000
v -1.29375 0.89700 -0.00475
v -1.22475 0.89700 -0.00903
v -1.15575 0.89700 -0.01288
v -1.06127 0.89700 -0.01746
v -0.96911 0.89700 -0.02105
v -0.88155 0.89700 -0.02341
v -0.80074 0.89700 -0.02433
v -0.72867 0.89700 -0.02364
v -0.66712 0.89700 -0.02134
v -0.61760 0.89700 -0.01756
v -0.58133 0.89700 -0.01256
v -0.55921 0.89700 -0.00663
v -0.15088 0.65550 0.00000
v -0.16325 0.65550 0.01043
v -0.20006 0.65550 0.01968
v -0.26040 0.65550 0.02734
v -0.34279 0.65550 0.03288
v -0.44520 0.65550 0.03588
v -0.56510 0.65550 0.03613
v -0.69955 0.65550 0.03370
v -0.84523 0.65550 0.02888
v -0.99855 0.65550 0.02205
v -1.15575 0.65550 0.01354
v -1.22475 0.65550 0.00934
v -1.29375 0.65550 0.00484
v -1.36275 0.65550 0.00000
v -1.29375 0.65550 -0.00484
v -1.22475 0.65550 -0.00934
v -1.15575 0.65550 -0.01354
v -0.99855 0.65550 -0.02205
v -0.84523 0.65550 -0.02888
v -0.69955 0.65550 -0.03370
v -0.56510 0.65550 -0.03613
v -0.44520 0.65550 -0.03588
v -0.34279 0.65550 -0.03288
v -0.26040 0.65550 -0.02734
v -0.20006 0.65550 -0.01968
v -0.16325 0.65550 -0.01043
v 0.23092 0.42550 0.00000
v 0.21385 0.42550 0.01403
v 0.16305 0.42550 0.02643
v 0.07978 0.42550 0.03660
v -0.03391 0.42550 0.04380
v -0.17523 0.42550 0.04743
v -0.34069 0.42550 0.04723
v -0.52621 0.42550 0.04333
v -0.72725 0.42550 0.03615
v -0.93883 0.42550 0.02620
v -1.15575 0.42550 0.01388
v -1.22475 0.42550 0.00950
v -1.29375 0.42550 0.00488
v -1.36275 0.42550 0.00000
v -1.29375 0.42550 -0.00488
v -1.22475 0.42550 -0.00950
v -1.15575 0.42550 -0.01388
v -0.93883 0.42550 -0.02620
v -0.72725 0.42550 -0.03615
v -0.52621 0.42550 -0.04333
v -0.34069 0.42550 -0.04723
v -0.17523 0.42550 -0.04743
v -0.03391 0.42550 -0.04380
v 0.07978 0.42550 -0.03660
v 0.16305 0.42550 -0.02643
v 0.21385 0.42550 -0.01403
v 0.61272 0.19550 0.00000
v 0.59095 0.19550 0.01762
v 0.52616 0.19550 0.03317
v 0.41997 0.19550 0.04584
v 0.27497 0.19550 0.05469
v 0.09475 0.19550 0.05894
v -0.11627 0.19550 0.05828
v -0.35288 0.19550 0.05290
v -0.60926 0.19550 0.04336
v -0.87910 0.19550 0.03028
v -1.15575 0.19550 0.01409
v -1.22475 0.19550 0.00959
v -1.29375 0.19550 0.00490
v -1.36275 0.19550 0.00000
v -1.29375 0.19550 -0.00490
v -1.22475 0.19550 -0.00959
v -1.15575 0.19550 -0.01409
v -0.87910 0.19550 -0.03028
v -0.60926 0.19550 -0.04336
v -0.35288 0.19550 -0.05290
v -0.11627 0.19550 -0.05828
v 0.09475 0.19550 -0.05894
v 0.27497 0.19550 -0.05469
v 0.41997 0.19550 -0.04584
v 0.52616 0.19550 -0.03317
v 0.59095 0.19550 -0.01762
v 0.80362 0.08050 0.00000
v 0.77950 0.08050 0.01942
v 0.70772 0.08050 0.03654
v 0.59006 0.08050 0.05046
v 0.42941 0.08050 0.06013
v 0.22973 0.08050 0.06469
v -0.00406 0.08050 0.06380
v -0.26621 0.08050 0.05768
v -0.55027 0.08050 0.04695
v -0.84924 0.08050 0.03230
v -1.15575 0.08050 0.01417
v -1.22475 0.08050 0.00963
v -1.29375 0.08050 0.00491
v -1.36275 0.08050 0.00000
v -1.29375 0.08050 -0.00491
v -1.22475 0.08050 -0.00963
v -1.15575 0.08050 -0.01417
v -0.84924 0.08050 -0.03230
v -0.55027 0.08050 -0.04695
v -0.26621 0.08050 -0.05768
v -0.00406 0.08050 -0.06380
v 0.22973 0.08050 -0.06469
v 0.42941 0.08050 -0.06013
v 0.59006 0.08050 -0.05046
v 0.70772 0.08050 -0.03654
v 0.77950 0.08050 -0.01942
v 0.93725 -0.00000 0.00000
v 0.91148 -0.00000 0.02068
v 0.83481 -0.00000 0.03890
v 0.70913 -0.00000 0.05369
v 0.53752 -0.00000 0.06393
v 0.32422 -0.00000 0.06871
v 0.07448 -0.00000 0.06766
v -0.20555 -0.00000 0.06102
v -0.50898 -0.00000 0.04945
v -0.82833 -0.00000 0.03370
v -1.15575 -0.00000 0.01421
v -1.22475 -0.00000 0.00965
v -1.29375 -0.00000 0.00492
v -1.36275 -0.00000 0.00000
v -1.29375 -0.00000 -0.00492
v -1.22475 -0.00000 -0.00965
v -1.15575 -0.00000 -0.01421
v -0.82833 -0.00000 -0.03370
v -0.50898 -0.00000 -0.04945
v -0.20555 -0.00000 -0.06102
v 0.07448 -0.00000 -0.06766
v 0.32422 -0.00000 -0.06871
v 0.53752 -0.00000 -0.06393
v 0.70913 -0.00000 -0.05369
v 0.83481 -0.00000 -0.03890
v 0.91148 -0.00000 -0.02068
v 0.80362 -0.08050 0.00000
v 0.77950 -0.08050 0.01942
v 0.70772 -0.08050 0.03654
v 0.59006 -0.08050 0.05046
v 0.42941 -0.08050 0.06013
v 0.22973 -0.08050 0.06469
v -0.00406 -0.08050 0.06380
v -0.26621 -0.08050 0.05768
v -0.55027 -0.08050 0.04695
v -0.84924 -0.08050 0.03230
v -1.15575 -0.08050 0.01417
v -1.22475 -0.08050 0.00963
v -1.29375 -0.08050 0.00491
v -1.36275 -0.08050 0.00000
v -1.29375 -0.08050 -0.00491
v -1.22475 -0.08050 -0.00963
v -1.15575 -0.08050 -0.01417
v -0.84924 -0.08050 -0.03230
v -0.55027 -0.08050 -0.04695
v -0.26621 -0.08050 -0.05768
v -0.00406 -0.08050 -0.06380
v 0.22973 -0.08050 -0.06469
v 0.42941 -0.08050 -0.06013
v 0.59006 -0.08050 -0.05046
v 0.70772 -0.08050 -0.03654
v 0.77950 -0.08050 -0.01942
v 0.61272 -0.19550 0.00000
v 0.59095 -0.19550 0.01762
v 0.52616 -0.19550 0.03317
v 0.41997 -0.19550 0.04584
v 0.27497 -0.19550 0.05469
v 0.09475 -0.19550 0.05894
v -0.11627 -0.19550 0.05828
v -0.35288 -0.19550 0.05290
v -0.60926 -0.19550 0.04336
v -0.87910 -0.19550 0.03028
v -1.15575 -0.19550 0.01409
v -1.22475 -0.19550 0.00959
v -1.29375 -0.19550 0.00490
v -1.36275 -0.19550 0.00000
v -1.29375 -0.19550 -0.00490
v -1.22475 -0.19550 -0.00959
v -1.15575 -0.19550 -0.01409
v -0.87910 -0.19550 -0.03028
v -0.60926 -0.19550 -0.04336
v -0.35288 -0.19550 -0.05290
v -0.11627 -0.19550 -0.05828
v 0.09475 -0.19550 -0.05894
v 0.27497 -0.19550 -0.05469
v 0.41997 -0.19550 -0.04584
v 0.52616 -0.19550 -0.03317
v 0.59095 -0.19550 -0.01762
v 0.23092 -0.42550 0.00000
v 0.21385 -0.42550 0.01403
v 0.16305 -0.42550 0.02643
v 0.07978 -0.42550 0.03660
v -0.03391 -0.42550 0.04380
v -0.17523 -0.42550 0.04743
v -0.34069 -0.42550 0.04723
v -0.52621 -0.42550 0.04333
v -0.72725 -0.42550 0.03615
v -0.93883 -0.42550 0.02620
v -1.15575 -0.42550 0.01388
v -1.22475 -0.42550 0.00950
v -1.29375 -0.42550 0.00488
v -1.36275 -0.42550 0.00000
v -1.29375 -0.42550 -0.00488
v -1.22475 -0.42550 -0.00950
v -1.15575 -0.42550 -0.01388
v -0.93883 -0.42550 -0.02620
v -0.72725 -0.42550 -0.03615
v -0.52621 -0.42550 -0.04333
v -0.34069 -0.42550 -0.04723
v -0.17523 -0.42550 -0.04743
v -0.03391 -0.42550 -0.04380
v 0.07978 -0.42550 -0.03660
v 0.16305 -0.42550 -0.02643
v 0.21385 -0.42550 -0.01403
v -0.15088 -0.65550 0.00000
v -0.16325 -0.65550 0.01043
v -0.20006 -0.65550 0.01968
v -0.26040 -0.65550 0.02734
v -0.34279 -0.65550 0.03288
v -0.44520 -0.65550 0.03588
v -0.56510 -0.65550 0.03613
v -0.69955 -0.65550 0.03370
v -0.84523 -0.65550 0.02888
v -0.99855 -0.65550 0.02205
v -1.15575 -0.65550 0.01354
v -1.22475 -0.65550 0.00934
v -1.29375 -0.65550 0.00484
v -1.36275 -0.65550 0.00000
v -1.29375 -0.65550 -0.00484
v -1.22475 -0.65550 -0.00934
v -1.15575 -0.65550 -0.01354
v -0.99855 -0.65550 -0.02205
v -0.84523 -0.65550 -0.02888
v -0.69955 -0.65550 -0.03370
v -0.56510 -0.65550 -0.03613
v -0.44520 -0.65550 -0.03588
v -0.34279 -0.65550 -0.03288
v -0.26040 -0.65550 -0.02734
v -0.20006 -0.65550 -0.01968
v -0.16325 -0.65550 -0.01043
v -0.55177 -0.89700 0.00000
v -0.55921 -0.89700 0.00663
v -0.58133 -0.89700 0.01256
v -0.61760 -0.89700 0.01756
v -0.66712 -0.89700 0.02134
v -0.72867 -0.89700 0.02364
v -0.80074 -0.89700 0.02433
v -0.88155 -0.89700 0.02341
v -0.96911 -0.89700 0.02105
v -1.06127 -0.89700 0.01746
v -1.15575 -0.89700 0.01288
v -1.22475 -0.89700 0.00903
v -1.29375 -0.89700 0.00475
v -1.36275 -0.89700 0.00000
v -1.29375 -0.89700 -0.00475
v -1.22475 -0.89700 -0.00903
v -1.15575 -0.89700 -0.01288
v -1.06127 -0.89700 -0.01746
v -0.96911 -0.89700 -0.02105
v -0.88155 -0.89700 -0.02341
v -0.80074 -0.89700 -0.02433
v -0.72867 -0.89700 -0.02364
v -0.66712 -0.89700 -0.02134
v -0.61760 -0.89700 -0.01756
v -0.58133 -0.89700 -0.01256
v -0.55921 -0.89700 -0.00663
v -0.81903 -1.05800 0.00000
v -0.82318 -1.05800 0.00407
v -0.83551 -1.05800 0.00776
v -0.85573 -1.05800 0.01095
v -0.88334 -1.05800 0.01350
v -0.91765 -1.05800 0.01527
v -0.95783 -1.05800 0.01618
v -1.00288 -1.05800 0.01623
v -1.05170 -1.05800 0.01545
v -1.10308 -1.05800 0.01397
v -1.15575 -1.05800 0.01192
v -1.22475 -1.05800 0.00859
v -1.29375 -1.05800 0.00463
v -1.36275 -1.05800 0.00000
v -1.29375 -1.05800 -0.00463
v -1.22475 -1.05800 -0.00859
v -1.15575 -1.05800 -0.01192
v -1.10308 -1.05800 -0.01397
v -1.05170 -1.05800 -0.01545
v -1.00288 -1.05800 -0.01623
v -0.95783 -1.05800 -0.01618
v -0.91765 -1.05800 -0.01527
v -0.88334 -1.05800 -0.01350
v -0.85573 -1.05800 -0.01095
v -0.83551 -1.05800 -0.00776
v -0.82318 -1.05800 -0.00407
v -0.97175 -1.15000 0.00000
v -0.97402 -1.15000 0.00256
v -0.98076 -1.15000 0.00492
v -0.99180 -1.15000 0.00703
v -1.00689 -1.15000 0.00880
v -1.02564 -1.15000 0.01019
v -1.04760 -1.15000 0.01115
v -1.07222 -1.15000 0.01165
v -1.09889 -1.15000 0.01170
v -1.12697 -1.15000 0.01136
v -1.15575 -1.15000 0.01068
v -1.22475 -1.15000 0.00809
v -1.29375 -1.15000 0.00450
v -1.36275 -1.15000 0.00000
v -1.29375 -1.15000 -0.00450
v -1.22475 -1.15000 -0.00809
v -1.15575 -1.15000 -0.01068
v -1.12697 -1.15000 -0.01136
v -1.09889 -1.15000 -0.01170
v -1.07222 -1.15000 -0.01165
v -1.04760 -1.15000 -0.01115
v -1.02564 -1.15000 -0.01019
v -1.00689 -1.15000 -0.00880
v -0.99180 -1.15000 -0.00703
v -0.98076 -1.15000 -0.00492
v -0.97402 -1.15000 -0.00256
v -1.07525 -1.13850 0.00000
v -1.28225 -1.13850 0.34500
v -1.36275 -1.13850 0.34500
v -1.36275 -1.13850 0.00000
v -1.36275 -1.13850 -0.34500
v -1.28225 -1.13850 -0.34500
v -1.07525 -1.16150 0.00000
v -1.28225 -1.16150 0.34500
v -1.36275 -1.16150 0.34500
v -1.36275 -1.16150 0.00000
v -1.36275 -1.16150 -0.34500
v -1.28225 -1.16150 -0.34500
v -1.07525 1.16150 0.00000
v -1.28225 1.16150 0.34500
v -1.36275 1.16150 0.34500
v -1.36275 1.16150 0.00000
v -1.36275 1.16150 -0.34500
v -1.28225 1.16150 -0.34500
v -1.07525 1.13850 0.00000
v -1.28225 1.13850 0.34500
v -1.36275 1.13850 0.34500
v -1.36275 1.13850 0.00000
v -1.36275 1.13850 -0.34500
v -1.28225 1.13850 -0.34500
v -0.37950 -0.39100 0.05267
v -0.37950 -0.71300 0.05267
v -0.27600 -0.71300 0.05267
v -0.27600 -0.39100 0.05267
v -0.37950 0.71300 0.05267
v -0.37950 0.39100 0.05267
v -0.27600 0.39100 0.05267
v -0.27600 0.71300 0.05267
v -1.34435 -1.16334 0.06900
v -1.34435 -1.16334 -0.15525
v -1.18220 -1.16334 -0.15525
v -1.18220 -1.16334 0.06900
v -1.18220 1.16334 0.06900
v -1.18220 1.16334 -0.15525
v -1.34435 1.16334 -0.15525
v -1.34435 1.16334 0.06900
v 1.13275 0.03910 0.16675
v 1.01775 0.03910 0.16675
v 1.01775 -0.03910 0.16675
v 1.13275 -0.03910 0.16675
v -1.27075 0.07970 0.00000
v -1.27075 0.07180 -0.03458
v -1.27075 0.04969 -0.06231
v -1.27075 0.01773 -0.07770
v -1.27075 -0.01773 -0.07770
v -1.27075 -0.04969 -0.06231
v -1.27075 -0.07180 -0.03458
v -1.27075 -0.07970 -0.00000
v -1.27075 -0.07180 0.03458
v -1.27075 -0.04969 0.06231
v -1.27075 -0.01773 0.07770
v -1.27075 0.01773 0.07770
v -1.27075 0.04969 0.06231
v -1.27075 0.07180 0.03458
v -1.50075 0.07173 0.00000
v -1.50075 0.06462 -0.03112
v -1.50075 0.04472 -0.05608
v -1.50075 0.01596 -0.06993
v -1.50075 -0.01596 -0.06993
v -1.50075 -0.04472 -0.05608
v -1.50075 -0.06462 -0.03112
v -1.50075 -0.07173 -0.00000
v -1.50075 -0.06462 0.03112
v -1.50075 -0.04472 0.05608
v -1.50075 -0.01596 0.06993
v -1.50075 0.01596 0.06993
v -1.50075 0.04472 0.05608
v -1.50075 0.06462 0.03112
v -1.43750 -0.05579 0.00000
v -1.43057 -0.05579 -0.02587
v -1.41162 -0.05579 -0.04482
v -1.38575 -0.05579 -0.05175
v -1.35987 -0.05579 -0.04482
v -1.34093 -0.05579 -0.02588
v -1.33400 -0.05579 -0.00000
v -1.34093 -0.05579 0.02587
v -1.35987 -0.05579 0.04482
v -1.38575 -0.05579 0.05175
v -1.41162 -0.05579 0.04482
v -1.43057 -0.05579 0.02588
v -1.43750 -0.11040 0.00000
v -1.43057 -0.11040 -0.02587
v -1.41162 -0.11040 -0.04482
v -1.38575 -0.11040 -0.05175
v -1.35987 -0.11040 -0.04482
v -1.34093 -0.11040 -0.02588
v -1.33400 -0.11040 -0.00000
v -1.34093 -0.11040 0.02587
v -1.35987 -0.11040 0.04482
v -1.38575 -0.11040 0.05175
v -1.41162 -0.11040 0.04482
v -1.43057 -0.11040 0.02588
v -1.45245 -0.11040 0.00000
v -1.44351 -0.11040 -0.03335
v -1.41910 -0.11040 -0.05776
v -1.38575 -0.11040 -0.06670
v -1.35240 -0.11040 -0.05776
v -1.32799 -0.11040 -0.03335
v -1.31905 -0.11040 -0.00000
v -1.32799 -0.11040 0.03335
v -1.35240 -0.11040 0.05776
v -1.38575 -0.11040 0.06670
v -1.41910 -0.11040 0.05776
v -1.44351 -0.11040 0.03335
v -1.44911 -0.16100 0.00000
v -1.44063 -0.16100 -0.03168
v -1.41743 -0.16100 -0.05488
v -1.38575 -0.16100 -0.06337
v -1.35407 -0.16100 -0.05488
v -1.33087 -0.16100 -0.03168
v -1.32239 -0.16100 -0.00000
v -1.33087 -0.16100 0.03168
v -1.35407 -0.16100 0.05488
v -1.38575 -0.16100 0.06337
v -1.41743 -0.16100 0.05488
v -1.44063 -0.16100 0.03168
v -1.38400 -0.12091 -0.05336
v -1.38375 -0.12780 -0.06564
v -1.39006 -0.13932 -0.07072
v -1.39923 -0.14872 -0.06564
v -1.40590 -0.15049 -0.05336
v -1.40615 -0.14360 -0.04108
v -1.39984 -0.13208 -0.03600
v -1.39067 -0.12268 -0.04108
v -1.49900 -0.03581 -0.10350
v -1.49875 -0.04270 -0.11578
v -1.50506 -0.05422 -0.12086
v -1.51423 -0.06362 -0.11578
v -1.52090 -0.06539 -0.10350
v -1.52115 -0.05850 -0.09122
v -1.51484 -0.04698 -0.08614
v -1.50567 -0.03758 -0.09122
v -1.33400 0.05579 0.00000
v -1.34093 0.05579 -0.02587
v -1.35987 0.05579 -0.04482
v -1.38575 0.05579 -0.05175
v -1.41162 0.05579 -0.04482
v -1.43057 0.05579 -0.02588
v -1.43750 0.05579 -0.00000
v -1.43057 0.05579 0.02587
v -1.41162 0.05579 0.04482
v -1.38575 0.05579 0.05175
v -1.35987 0.05579 0.04482
v -1.34093 0.05579 0.02588
v -1.33400 0.11040 0.00000
v -1.34093 0.11040 -0.02587
v -1.35987 0.11040 -0.04482
v -1.38575 0.11040 -0.05175
v -1.41162 0.11040 -0.04482
v -1.43057 0.11040 -0.02588
v -1.43750 0.11040 -0.00000
v -1.43057 0.11040 0.02587
v -1.41162 0.11040 0.04482
v -1.38575 0.11040 0.05175
v -1.35987 0.11040 0.04482
v -1.34093 0.11040 0.02588
v -1.31905 0.11040 0.00000
v -1.32799 0.11040 -0.03335
v -1.35240 0.11040 -0.05776
v -1.38575 0.11040 -0.06670
v -1.41910 0.11040 -0.05776
v -1.44351 0.11040 -0.03335
v -1.45245 0.11040 -0.00000
v -1.44351 0.11040 0.03335
v -1.41910 0.11040 0.05776
v -1.38575 0.11040 0.06670
v -1.35240 0.11040 0.05776
v -1.32799 0.11040 0.03335
v -1.32239 0.16100 0.00000
v -1.33087 0.16100 -0.03168
v -1.35407 0.16100 -0.05488
v -1.38575 0.16100 -0.06337
v -1.41743 0.16100 -0.05488
v -1.44063 0.16100 -0.03168
v -1.44911 0.16100 -0.00000
v -1.44063 0.16100 0.03168
v -1.41743 0.16100 0.05488
v -1.38575 0.16100 0.06337
v -1.35407 0.16100 0.05488
v -1.33087 0.16100 0.03168
v -1.40590 0.15049 -0.05336
v -1.39923 0.14872 -0.06564
v -1.39006 0.13932 -0.07072
v -1.38375 0.12780 -0.06564
v -1.38400 0.12091 -0.05336
v -1.39067 0.12268 -0.04108
v -1.39984 0.13208 -0.03600
v -1.40615 0.14360 -0.04108
v -1.52090 0.06539 -0.10350
v -1.51423 0.06362 -0.11578
v -1.50506 0.05422 -0.12086
v -1.49875 0.04270 -0.11578
v -1.49900 0.03581 -0.10350
v -1.50567 0.03758 -0.09122
v -1.51484 0.04698 -0.08614
v -1.52115 0.05850 -0.09122
v -1.49615 0.01840 0.00000
v -1.49615 0.01301 -0.01301
v -1.49615 0.00000 -0.01840
v -1.49615 -0.01301 -0.01301
v -1.49615 -0.01840 -0.00000
v -1.49615 -0.01301 0.01301
v -1.49615 -0.00000 0.01840
v -1.49615 0.01301 0.01301
v -1.52375 0.01840 0.00000
v -1.52375 0.01301 -0.01301
v -1.52375 0.00000 -0.01840
v -1.52375 -0.01301 -0.01301
v -1.52375 -0.01840 -0.00000
v -1.52375 -0.01301 0.01301
v -1.52375 -0.00000 0.01840
v -1.52375 0.01301 0.01301
v -1.52375 0.03450 0.00000
v -1.52375 0.03108 -0.01497
v -1.52375 0.02151 -0.02697
v -1.52375 0.00768 -0.03364
v -1.52375 -0.00768 -0.03364
v -1.52375 -0.02151 -0.02697
v -1.52375 -0.03108 -0.01497
v -1.52375 -0.03450 -0.00000
v -1.52375 -0.03108 0.01497
v -1.52375 -0.02151 0.02697
v -1.52375 -0.00768 0.03364
v -1.52375 0.00768 0.03364
v -1.52375 0.02151 0.02697
v -1.52375 0.03108 0.01497
v -1.59275 -0.00000 0.00000
v -1.56745 0.32200 0.00000
v -1.56745 0.31581 -0.06282
v -1.56745 0.29749 -0.12322
v -1.56745 0.26773 -0.17889
v -1.56745 0.22769 -0.22769
v -1.56745 0.17889 -0.26773
v -1.56745 0.12322 -0.29749
v -1.56745 0.06282 -0.31581
v -1.56745 0.00000 -0.32200
v -1.56745 -0.06282 -0.31581
v -1.56745 -0.12322 -0.29749
v -1.56745 -0.17889 -0.26773
v -1.56745 -0.22769 -0.22769
v -1.56745 -0.26773 -0.17889
v -1.56745 -0.29749 -0.12322
v -1.56745 -0.31581 -0.06282
v -1.56745 -0.32200 -0.00000
v -1.56745 -0.31581 0.06282
v -1.56745 -0.29749 0.12322
v -1.56745 -0.26773 0.17889
v -1.56745 -0.22769 0.22769
v -1.56745 -0.17889 0.26773
v -1.56745 -0.12322 0.29749
v -1.56745 -0.06282 0.31581
v -1.56745 -0.00000 0.32200
v -1.56745 0.06282 0.31581
v -1.56745 0.12322 0.29749
v -1.56745 0.17889 0.26773
v -1.56745 0.22769 0.22769
v -1.56745 0.26773 0.17889
v -1.56745 0.29749 0.12322
v -1.56745 0.31581 0.06282
v -1.57665 0.32200 0.00000
v -1.57665 0.31581 -0.06282
v -1.57665 0.29749 -0.12322
v -1.57665 0.26773 -0.17889
v -1.57665 0.22769 -0.22769
v -1.57665 0.17889 -0.26773
v -1.57665 0.12322 -0.29749
v -1.57665 0.06282 -0.31581
v -1.57665 0.00000 -0.32200
v -1.57665 -0.06282 -0.31581
v -1.57665 -0.12322 -0.29749
v -1.57665 -0.17889 -0.26773
v -1.57665 -0.22769 -0.22769
v -1.57665 -0.26773 -0.17889
v -1.57665 -0.29749 -0.12322
v -1.57665 -0.31581 -0.06282
v -1.57665 -0.32200 -0.00000
v -1.57665 -0.31581 0.06282
v -1.57665 -0.29749 0.12322
v -1.57665 -0.26773 0.17889
v -1.57665 -0.22769 0.22769
v -1.57665 -0.17889 0.26773
v -1.57665 -0.12322 0.29749
v -1.57665 -0.06282 0.31581
v -1.57665 -0.00000 0.32200
v -1.57665 0.06282 0.31581
v -1.57665 0.12322 0.29749
v -1.57665 0.17889 0.26773
v -1.57665 0.22769 0.22769
v -1.57665 0.26773 0.17889
v -1.57665 0.29749 0.12322
v -1.57665 0.31581 0.06282
v 1.65025 0.00690 0.00000
v 1.65025 0.00345 -0.00598
v 1.65025 -0.00345 -0.00598
v 1.65025 -0.00690 -0.00000
v 1.65025 -0.00345 0.00598
v 1.65025 0.00345 0.00598
v 1.53525 0.00690 0.00000
v 1.53525 0.00345 -0.00598
v 1.53525 -0.00345 -0.00598
v 1.53525 -0.00690 -0.00000
v 1.53525 -0.00345 0.00598
v 1.53525 0.00345 0.00598
v 1.42025 0.00345 0.12795
v 1.37425 0.00345 0.12795
v 1.35035 0.00345 0.19695
v 1.38041 0.00345 0.19695
v 1.42025 -0.00345 0.12795
v 1.37425 -0.00345 0.12795
v 1.35035 -0.00345 0.19695
v 1.38041 -0.00345 0.19695
v 1.35125 0.00345 0.14509
v 1.30525 0.00345 0.14509
v 1.28135 0.00345 0.21409
v 1.31141 0.00345 0.21409
v 1.35125 -0.00345 0.14509
v 1.30525 -0.00345 0.14509
v 1.28135 -0.00345 0.21409
v 1.31141 -0.00345 0.21409
usemtl fuselage
f 577 2 1
f 577 3 2
f 577 4 3
f 577 5 4
f 577 6 5
f 577 7 6
f 577 8 7
f 577 9 8
f 577 10 9
f 577 11 10
f 577 12 11
f 577 13 12
f 577 14 13
f 577 15 14
f 577 16 15
f 577 17 16
f 577 18 17
f 577 19 18
f 577 20 19
f 577 21 20
f 577 22 21
f 577 23 22
f 577 24 23
f 577 1 24
f 1 2 26 25
f 2 3 27 26
f 3 4 28 27
f 4 5 29 28
f 5 6 30 29
f 6 7 31 30
f 7 8 32 31
f 8 9 33 32
f 9 10 34 33
f 10 11 35 34
f 11 12 36 35
f 12 13 37 36
f 13 14 38 37
f 14 15 39 38
f 15 16 40 39
f 16 17 41 40
f 17 18 42 41
f 18 19 43 42
f 19 20 44 43
f 20 21 45 44
f 21 22 46 45
f 22 23 47 46
f 23 24 48 47
f 24 1 25 48
f 25 26 50 49
f 26 27 51 50
f 27 28 52 51
f 28 29 53 52
f 29 30 54 53
f 30 31 55 54
f 31 32 56 55
f 32 33 57 56
f 33 34 58 57
f 34 35 59 58
f 35 36 60 59
f 36 37 61 60
f 37 38 62 61
f 38 39 63 62
f 39 40 64 63
f 40 41 65 64
f 41 42 66 65
f 42 43 67 66
f 43 44 68 67
f 44 45 69 68
f 45 46 70 69
f 46 47 71 70
f 47 48 72 71
f 48 25 49 72
f 49 50 74 73
f 50 51 75 74
f 51 52 76 75
f 52 53 77 76
f 53 54 78 77
f 54 55 79 78
f 55 56 80 79
f 56 57 81 80
f 57 58 82 81
f 58 59 83 82
f 59 60 84 83
f 60 61 85 84
f 61 62 86 85
f 62 63 87 86
f 63 64 88 87
f 64 65 89 88
f 65 66 90 89
f 66 67 91 90
f 67 68 92 91
f 68 69 93 92
f 69 70 94 93
f 70 71 95 94
f 71 72 96 95
f 72 49 73 96
f 73 74 98 97
f 74 75 99 98
f 75 76 100 99
f 76 77 101 100
f 77 78 102 101
f 78 79 103 102
f 79 80 104 103
f 80 81 105 104
f 81 82 106 105
f 82 83 107 106
f 83 84 108 107
f 84 85 109 108
f 85 86 110 109
f 86 87 111 110
f 87 88 112 111
f 88 89 113 112
f 89 90 114 113
f 90 91 115 114
f 91 92 116 115
f 92 93 117 116
f 93 94 118 117
f 94 95 119 118
f 95 96 120 119
f 96 73 97 120
f 97 98 122 121
f 98 99 123 122
f 99 100 124 123
f 100 101 125 124
f 101 102 126 125
f 102 103 127 126
f 103 104 128 127
f 104 105 129 128
f 105 106 130 129
f 106 107 131 130
f 107 108 132 131
f 108 109 133 132
f 109 110 134 133
f 110 111 135 134
f 111 112 136 135
f 112 113 137 136
f 113 114 138 137
f 114 115 139 138
f 115 116 140 139
f 116 117 141 140
f 117 118 142 141
f 118 119 143 142
f 119 120 144 143
f 120 97 121 144
f 121 122 146 145
f 122 123 147 146
f 123 124 148 147
f 124 125 149 148
f 125 126 150 149
f 126 127 151 150
f 127 128 152 151
f 128 129 153 152
f 129 130 154 153
f 130 131 155 154
f 131 132 156 155
f 132 133 157 156
f 133 134 158 157
f 134 135 159 158
f 135 136 160 159
f 136 137 161 160
f 137 138 162 161
f 138 139 163 162
f 139 140 164 163
f 140 141 165 164
f 141 142 166 165
f 142 143 167 166
f 143 144 168 167
f 144 121 145 168
f 145 146 170 169
f 146 147 171 170
f 147 148 172 171
f 148 149 173 172
f 149 150 174 173
f 150 151 175 174
f 151 152 176 175
f 152 153 177 176
f 153 154 178 177
f 154 155 179 178
f 155 156 180 179
f 156 157 181 180
f 157 158 182 181
f 158 159 183 182
f 159 160 184 183
f 160 161 185 184
f 161 162 186 185
f 162 163 187 186
f 163 164 188 187
f 164 165 189 188
f 165 166 190 189
f 166 167 191 190
f 167 168 192 191
f 168 145 169 192
f 169 170 194 193
f 170 171 195 194
f 171 172 196 195
f 172 173 197 196
f 173 174 198 197
f 174 175 199 198
f 175 176 200 199
f 176 177 201 200
f 177 178 202 201
f 178 179 203 202
f 179 180 204 203
f 180 181 205 204
f 181 182 206 205
f 182 183 207 206
f 183 184 208 207
f 184 185 209 208
f 185 186 210 209
f 186 187 211 210
f 187 188 212 211
f 188 189 213 212
f 189 190 214 213
f 190 191 215 214
f 191 192 216 215
f 192 169 193 216
usemtl markings
f 193 194 218 217
f 194 195 219 218
f 195 196 220 219
f 196 197 221 220
f 197 198 222 221
f 198 199 223 222
f 199 200 224 223
f 200 201 225 224
f 201 202 226 225
f 202 203 227 226
f 203 204 228 227
f 204 205 229 228
f 205 206 230 229
f 206 207 231 230
f 207 208 232 231
f 208 209 233 232
f 209 210 234 233
f 210 211 235 234
f 211 212 236 235
f 212 213 237 236
f 213 214 238 237
f 214 215 239 238
f 215 216 240 239
f 216 193 217 240
usemtl fuselage
f 217 218 242 241
f 218 219 243 242
f 219 220 244 243
f 220 221 245 244
f 221 222 246 245
f 222 223 247 246
f 223 224 248 247
f 224 225 249 248
f 225 226 250 249
f 226 227 251 250
f 227 228 252 251
f 228 229 253 252
f 229 230 254 253
f 230 231 255 254
f 231 232 256 255
f 232 233 257 256
f 233 234 258 257
f 234 235 259 258
f 235 236 260 259
f 236 237 261 260
f 237 238 262 261
f 238 239 263 262
f 239 240 264 263
f 240 217 241 264
f 241 242 266 265
f 242 243 267 266
f 243 244 268 267
f 244 245 269 268
f 245 246 270 269
f 246 247 271 270
f 247 248 272 271
f 248 249 273 272
f 249 250 274 273
f 250 251 275 274
f 251 252 276 275
f 252 253 277 276
f 253 254 278 277
f 254 255 279 278
f 255 256 280 279
f 256 257 281 280
f 257 258 282 281
f 258 259 283 282
f 259 260 284 283
f 260 261 285 284
f 261 262 286 285
f 262 263 287 286
f 263 264 288 287
f 264 241 265 288
f 265 266 290 289
f 266 267 291 290
f 267 268 292 291
f 268 269 293 292
f 269 270 294 293
f 270 271 295 294
f 271 272 296 295
f 272 273 297 296
f 273 274 298 297
f 274 275 299 298
f 275 276 300 299
f 276 277 301 300
f 277 278 302 301
f 278 279 303 302
f 279 280 304 303
f 280 281 305 304
f 281 282 306 305
f 282 283 307 306
f 283 284 308 307
f 284 285 309 308
f 285 286 310 309
f 286 287 311 310
f 287 288 312 311
f 288 265 289 312
f 289 290 314 313
f 290 291 315 314
f 291 292 316 315
f 292 293 317 316
f 293 294 318 317
f 294 295 319 318
f 295 296 320 319
f 296 297 321 320
f 297 298 322 321
f 298 299 323 322
f 299 300 324 323
f 300 301 325 324
f 301 302 326 325
f 302 303 327 326
f 303 304 328 327
f 304 305 329 328
f 305 306 330 329
f 306 307 331 330
f 307 308 332 331
f 308 309 333 332
f 309 310 334 333
f 310 311 335 334
f 311 312 336 335
f 312 289 313 336
f 313 314 338 337
f 314 315 339 338
f 315 316 340 339
f 316 317 341 340
f 317 318 342 341
f 318 319 343 342
f 319 320 344 343
f 320 321 345 344
f 321 322 346 345
f 322 323 347 346
f 323 324 348 347
f 324 325 349 348
f 325 326 350 349
f 326 327 351 350
f 327 328 352 351
f 328 329 353 352
f 329 330 354 353
f 330 331 355 354
f 331 332 356 355
f 332 333 357 356
f 333 334 358 357
f 334 335 359 358
f 335 336 360 359
f 336 313 337 360
f 337 338 362 361
f 338 339 363 362
f 339 340 364 363
f 340 341 365 364
f 341 342 366 365
f 342 343 367 366
f 343 344 368 367
f 344 345 369 368
f 345 346 370 369
f 346 347 371 370
f 347 348 372 371
f 348 349 373 372
f 349 350 374 373
f 350 351 375 374
f 351 352 376 375
f 352 353 377 376
f 353 354 378 377
f 354 355 379 378
f 355 356 380 379
f 356 357 381 380
f 357 358 382 381
f 358 359 383 382
f 359 360 384 383
f 360 337 361 384
f 361 362 386 385
f 362 363 387 386
f 363 364 388 387
f 364 365 389 388
f 365 366 390 389
f 366 367 391 390
f 367 368 392 391
f 368 369 393 392
f 369 370 394 393
f 370 371 395 394
f 371 372 396 395
f 372 373 397 396
f 373 374 398 397
f 374 375 399 398
f 375 376 400 399
f 376 377 401 400
f 377 378 402 401
f 378 379 403 402
f 379 380 404 403
f 380 381 405 404
f 381 382 406 405
f 382 383 407 406
f 383 384 408 407
f 384 361 385 408
f 385 386 410 409
f 386 387 411 410
f 387 388 412 411
f 388 389 413 412
f 389 390 414 413
f 390 391 415 414
f 391 392 416 415
f 392 393 417 416
f 393 394 418 417
f 394 395 419 418
f 395 396 420 419
f 396 397 421 420
f 397 398 422 421
f 398 399 423 422
f 399 400 424 423
f 400 401 425 424
f 401 402 426 425
f 402 403 427 426
f 403 404 428 427
f 404 405 429 428
f 405 406 430 429
f 406 407 431 430
f 407 408 432 431
f 408 385 409 432
f 409 410 434 433
f 410 411 435 434
f 411 412 436 435
f 412 413 437 436
f 413 414 438 437
f 414 415 439 438
f 415 416 440 439
f 416 417 441 440
f 417 418 442 441
f 418 419 443 442
f 419 420 444 443
f 420 421 445 444
f 421 422 446 445
f 422 423 447 446
f 423 424 448 447
f 424 425 449 448
f 425 426 450 449
f 426 427 451 450
f 427 428 452 451
f 428 429 453 452
f 429 430 454 453
f 430 431 455 454
f 431 432 456 455
f 432 409 433 456
f 433 434 458 457
f 434 435 459 458
f 435 436 460 459
f 436 437 461 460
f 437 438 462 461
f 438 439 463 462
f 439 440 464 463
f 440 441 465 464
f 441 442 466 465
f 442 443 467 466
f 443 444 468 467
f 444 445 469 468
f 445 446 470 469
f 446 447 471 470
f 447 448 472 471
f 448 449 473 472
f 449 450 474 473
f 450 451 475 474
f 451 452 476 475
f 452 453 477 476
f 453 454 478 477
f 454 455 479 478
f 455 456 480 479
f 456 433 457 480
f 457 458 482 481
f 458 459 483 482
f 459 460 484 483
f 460 461 485 484
f 461 462 486 485
f 462 463 487 486
f 463 464 488 487
f 464 465 489 488
f 465 466 490 489
f 466 467 491 490
f 467 468 492 491
f 468 469 493 492
f 469 470 494 493
f 470 471 495 494
f 471 472 496 495
f 472 473 497 496
f 473 474 498 497
f 474 475 499 498
f 475 476 500 499
f 476 477 501 500
f 477 478 502 501
f 478 479 503 502
f 479 480 504 503
f 480 457 481 504
f 481 482 506 505
f 482 483 507 506
f 483 484 508 507
f 484 485 509 508
f 485 486 510 509
f 486 487 511 510
f 487 488 512 511
f 488 489 513 512
f 489 490 514 513
f 490 491 515 514
f 491 492 516 515
f 492 493 517 516
f 493 494 518 517
f 494 495 519 518
f 495 496 520 519
f 496 497 521 520
f 497 498 522 521
f 498 499 523 522
f 499 500 524 523
f 500 501 525 524
f 501 502 526 525
f 502 503 527 526
f 503 504 528 527
f 504 481 505 528
usemtl tail_cone
f 505 506 530 529
f 506 507 531 530
f 507 508 532 531
f 508 509 533 532
f 509 510 534 533
f 510 511 535 534
f 511 512 536 535
f 512 513 537 536
f 513 514 538 537
f 514 515 539 538
f 515 516 540 539
f 516 517 541 540
f 517 518 542 541
f 518 519 543 542
f 519 520 544 543
f 520 521 545 544
f 521 522 546 545
f 522 523 547 546
f 523 524 548 547
f 524 525 549 548
f 525 526 550 549
f 526 527 551 550
f 527 528 552 551
f 528 505 529 552
f 529 530 554 553
f 530 531 555 554
f 531 532 556 555
f 532 533 557 556
f 533 534 558 557
f 534 535 559 558
f 535 536 560 559
f 536 537 561 560
f 537 538 562 561
f 538 539 563 562
f 539 540 564 563
f 540 541 565 564
f 541 542 566 565
f 542 543 567 566
f 543 544 568 567
f 544 545 569 568
f 545 546 570 569
f 546 547 571 570
f 547 548 572 571
f 548 549 573 572
f 549 550 574 573
f 550 551 575 574
f 551 552 576 575
f 552 529 553 576
f 553 554 555 556 557 558 559 560 561 562 563 564 565 566 567 568 569 570 571 572 573 574 575 576
usemtl skin
f 578 579 605 604
f 579 580 606 605
f 580 581 607 606
f 581 582 608 607
f 582 583 609 608
f 583 584 610 609
f 584 585 611 610
f 585 586 612 611
f 586 587 613 612
f 587 588 614 613
usemtl control_surface
f 588 589 615 614
f 589 590 616 615
f 590 591 617 616
f 591 592 618 617
f 592 593 619 618
f 593 594 620 619
usemtl skin
f 594 595 621 620
f 595 596 622 621
f 596 597 623 622
f 597 598 624 623
f 598 599 625 624
f 599 600 626 625
f 600 601 627 626
f 601 602 628 627
f 602 603 629 628
f 603 578 604 629
f 604 605 631 630
f 605 606 632 631
f 606 607 633 632
f 607 608 634 633
f 608 609 635 634
f 609 610 636 635
f 610 611 637 636
f 611 612 638 637
f 612 613 639 638
f 613 614 640 639
usemtl control_surface
f 614 615 641 640
f 615 616 642 641
f 616 617 643 642
f 617 618 644 643
f 618 619 645 644
f 619 620 646 645
usemtl skin
f 620 621 647 646
f 621 622 648 647
f 622 623 649 648
f 623 624 650 649
f 624 625 651 650
f 625 626 652 651
f 626 627 653 652
f 627 628 654 653
f 628 629 655 654
f 629 604 630 655
f 630 631 657 656
f 631 632 658 657
f 632 633 659 658
f 633 634 660 659
f 634 635 661 660
f 635 636 662 661
f 636 637 663 662
f 637 638 664 663
f 638 639 665 664
f 639 640 666 665
usemtl control_surface
f 640 641 667 666
f 641 642 668 667
f 642 643 669 668
f 643 644 670 669
f 644 645 671 670
f 645 646 672 671
usemtl skin
f 646 647 673 672
f 647 648 674 673
f 648 649 675 674
f 649 650 676 675
f 650 651 677 676
f 651 652 678 677
f 652 653 679 678
f 653 654 680 679
f 654 655 681 680
f 655 630 656 681
f 656 657 683 682
f 657 658 684 683
f 658 659 685 684
f 659 660 686 685
f 660 661 687 686
f 661 662 688 687
f 662 663 689 688
f 663 664 690 689
f 664 665 691 690
f 665 666 692 691
usemtl control_surface
f 666 667 693 692
f 667 668 694 693
f 668 669 695 694
f 669 670 696 695
f 670 671 697 696
f 671 672 698 697
usemtl skin
f 672 673 699 698
f 673 674 700 699
f 674 675 701 700
f 675 676 702 701
f 676 677 703 702
f 677 678 704 703
f 678 679 705 704
f 679 680 706 705
f 680 681 707 706
f 681 656 682 707
f 682 683 709 708
f 683 684 710 709
f 684 685 711 710
f 685 686 712 711
f 686 687 713 712
f 687 688 714 713
f 688 689 715 714
f 689 690 716 715
f 690 691 717 716
f 691 692 718 717
usemtl control_surface
f 692 693 719 718
f 693 694 720 719
f 694 695 721 720
f 695 696 722 721
f 696 697 723 722
f 697 698 724 723
usemtl skin
f 698 699 725 724
f 699 700 726 725
f 700 701 727 726
f 701 702 728 727
f 702 703 729 728
f 703 704 730 729
f 704 705 731 730
f 705 706 732 731
f 706 707 733 732
f 707 682 708 733
f 708 709 735 734
f 709 710 736 735
f 710 711 737 736
f 711 712 738 737
f 712 713 739 738
f 713 714 740 739
f 714 715 741 740
f 715 716 742 741
f 716 717 743 742
f 717 718 744 743
f 718 719 745 744
f 719 720 746 745
f 720 721 747 746
f 721 722 748 747
f 722 723 749 748
f 723 724 750 749
f 724 725 751 750
f 725 726 752 751
f 726 727 753 752
f 727 728 754 753
f 728 729 755 754
f 729 730 756 755
f 730 731 757 756
f 731 732 758 757
f 732 733 759 758
f 733 708 734 759
f 734 735 761 760
f 735 736 762 761
f 736 737 763 762
f 737 738 764 763
f 738 739 765 764
f 739 740 766 765
f 740 741 767 766
f 741 742 768 767
f 742 743 769 768
f 743 744 770 769
f 744 745 771 770
f 745 746 772 771
f 746 747 773 772
f 747 748 774 773
f 748 749 775 774
f 749 750 776 775
f 750 751 777 776
f 751 752 778 777
f 752 753 779 778
f 753 754 780 779
f 754 755 781 780
f 755 756 782 781
f 756 757 783 782
f 757 758 784 783
f 758 759 785 784
f 759 734 760 785
f 760 761 787 786
f 761 762 788 787
f 762 763 789 788
f 763 764 790 789
f 764 765 791 790
f 765 766 792 791
f 766 767 793 792
f 767 768 794 793
f 768 769 795 794
f 769 770 796 795
f 770 771 797 796
f 771 772 798 797
f 772 773 799 798
f 773 774 800 799
f 774 775 801 800
f 775 776 802 801
f 776 777 803 802
f 777 778 804 803
f 778 779 805 804
f 779 780 806 805
f 780 781 807 806
f 781 782 808 807
f 782 783 809 808
f 783 784 810 809
f 784 785 811 810
f 785 760 786 811
f 786 787 813 812
f 787 788 814 813
f 788 789 815 814
f 789 790 816 815
f 790 791 817 816
f 791 792 818 817
f 792 793 819 818
f 793 794 820 819
f 794 795 821 820
f 795 796 822 821
f 796 797 823 822
f 797 798 824 823
f 798 799 825 824
f 799 800 826 825
f 800 801 827 826
f 801 802 828 827
f 802 803 829 828
f 803 804 830 829
f 804 805 831 830
f 805 806 832 831
f 806 807 833 832
f 807 808 834 833
f 808 809 835 834
f 809 810 836 835
f 810 811 837 836
f 811 786 812 837
f 812 813 839 838
f 813 814 840 839
f 814 815 841 840
f 815 816 842 841
f 816 817 843 842
f 817 818 844 843
f 818 819 845 844
f 819 820 846 845
f 820 821 847 846
f 821 822 848 847
usemtl control_surface
f 822 823 849 848
f 823 824 850 849
f 824 825 851 850
f 825 826 852 851
f 826 827 853 852
f 827 828 854 853
usemtl skin
f 828 829 855 854
f 829 830 856 855
f 830 831 857 856
f 831 832 858 857
f 832 833 859 858
f 833 834 860 859
f 834 835 861 860
f 835 836 862 861
f 836 837 863 862
f 837 812 838 863
f 838 839 865 864
f 839 840 866 865
f 840 841 867 866
f 841 842 868 867
f 842 843 869 868
f 843 844 870 869
f 844 845 871 870
f 845 846 872 871
f 846 847 873 872
f 847 848 874 873
usemtl control_surface
f 848 849 875 874
f 849 850 876 875
f 850 851 877 876
f 851 852 878 877
f 852 853 879 878
f 853 854 880 879
usemtl skin
f 854 855 881 880
f 855 856 882 881
f 856 857 883 882
f 857 858 884 883
f 858 859 885 884
f 859 860 886 885
f 860 861 887 886
f 861 862 888 887
f 862 863 889 888
f 863 838 864 889
f 864 865 891 890
f 865 866 892 891
f 866 867 893 892
f 867 868 894 893
f 868 869 895 894
f 869 870 896 895
f 870 871 897 896
f 871 872 898 897
f 872 873 899 898
f 873 874 900 899
usemtl control_surface
f 874 875 901 900
f 875 876 902 901
f 876 877 903 902
f 877 878 904 903
f 878 879 905 904
f 879 880 906 905
usemtl skin
f 880 881 907 906
f 881 882 908 907
f 882 883 909 908
f 883 884 910 909
f 884 885 911 910
f 885 886 912 911
f 886 887 913 912
f 887 888 914 913
f 888 889 915 914
f 889 864 890 915
f 890 891 917 916
f 891 892 918 917
f 892 893 919 918
f 893 894 920 919
f 894 895 921 920
f 895 896 922 921
f 896 897 923 922
f 897 898 924 923
f 898 899 925 924
f 899 900 926 925
usemtl control_surface
f 900 901 927 926
f 901 902 928 927
f 902 903 929 928
f 903 904 930 929
f 904 905 931 930
f 905 906 932 931
usemtl skin
f 906 907 933 932
f 907 908 934 933
f 908 909 935 934
f 909 910 936 935
f 910 911 937 936
f 911 912 938 937
f 912 913 939 938
f 913 914 940 939
f 914 915 941 940
f 915 890 916 941
f 916 917 943 942
f 917 918 944 943
f 918 919 945 944
f 919 920 946 945
f 920 921 947 946
f 921 922 948 947
f 922 923 949 948
f 923 924 950 949
f 924 925 951 950
f 925 926 952 951
usemtl control_surface
f 926 927 953 952
f 927 928 954 953
f 928 929 955 954
f 929 930 956 955
f 930 931 957 956
f 931 932 958 957
usemtl skin
f 932 933 959 958
f 933 934 960 959
f 934 935 961 960
f 935 936 962 961
f 936 937 963 962
f 937 938 964 963
f 938 939 965 964
f 939 940 966 965
f 940 941 967 966
f 941 916 942 967
f 603 602 601 600 599 598 597 596 595 594 593 592 591 590 589 588 587 586 585 584 583 582 581 580 579 578
f 942 943 944 945 946 947 948 949 950 951 952 953 954 955 956 957 958 959 960 961 962 963 964 965 966 967
usemtl fin
f 973 972 971 970 969 968
f 974 975 976 977 978 979
f 968 969 975 974
f 969 970 976 975
f 970 971 977 976
f 971 972 978 977
f 972 973 979 978
f 973 968 974 979
f 985 984 983 982 981 980
f 986 987 988 989 990 991
f 980 981 987 986
f 981 982 988 987
f 982 983 989 988
f 983 984 990 989
f 984 985 991 990
f 985 980 986 991
usemtl decal
f 992 993 994 995
f 996 997 998 999
f 1000 1001 1002 1003
f 1004 1005 1006 1007
f 1008 1009 1010 1011
usemtl engine_region
f 1012 1013 1027 1026
f 1013 1014 1028 1027
f 1014 1015 1029 1028
f 1015 1016 1030 1029
f 1016 1017 1031 1030
f 1017 1018 1032 1031
f 1018 1019 1033 1032
f 1019 1020 1034 1033
f 1020 1021 1035 1034
f 1021 1022 1036 1035
f 1022 1023 1037 1036
f 1023 1024 1038 1037
f 1024 1025 1039 1038
f 1025 1012 1026 1039
f 1025 1024 1023 1022 1021 1020 1019 1018 1017 1016 1015 1014 1013 1012
f 1026 1027 1028 1029 1030 1031 1032 1033 1034 1035 1036 1037 1038 1039
f 1040 1041 1053 1052
f 1041 1042 1054 1053
f 1042 1043 1055 1054
f 1043 1044 1056 1055
f 1044 1045 1057 1056
f 1045 1046 1058 1057
f 1046 1047 1059 1058
f 1047 1048 1060 1059
f 1048 1049 1061 1060
f 1049 1050 1062 1061
f 1050 1051 1063 1062
f 1051 1040 1052 1063
f 1051 1050 1049 1048 1047 1046 1045 1044 1043 1042 1041 1040
f 1052 1053 1054 1055 1056 1057 1058 1059 1060 1061 1062 1063
f 1064 1065 1077 1076
f 1065 1066 1078 1077
f 1066 1067 1079 1078
f 1067 1068 1080 1079
f 1068 1069 1081 1080
f 1069 1070 1082 1081
f 1070 1071 1083 1082
f 1071 1072 1084 1083
f 1072 1073 1085 1084
f 1073 1074 1086 1085
f 1074 1075 1087 1086
f 1075 1064 1076 1087
f 1075 1074 1073 1072 1071 1070 1069 1068 1067 1066 1065 1064
f 1076 1077 1078 1079 1080 1081 1082 1083 1084 1085 1086 1087
usemtl exhaust_outlet
f 1088 1089 1097 1096
f 1089 1090 1098 1097
f 1090 1091 1099 1098
f 1091 1092 1100 1099
f 1092 1093 1101 1100
f 1093 1094 1102 1101
f 1094 1095 1103 1102
f 1095 1088 1096 1103
f 1095 1094 1093 1092 1091 1090 1089 1088
f 1096 1097 1098 1099 1100 1101 1102 1103
usemtl engine_region
f 1104 1105 1117 1116
f 1105 1106 1118 1117
f 1106 1107 1119 1118
f 1107 1108 1120 1119
f 1108 1109 1121 1120
f 1109 1110 1122 1121
f 1110 1111 1123 1122
f 1111 1112 1124 1123
f 1112 1113 1125 1124
f 1113 1114 1126 1125
f 1114 1115 1127 1126
f 1115 1104 1116 1127
f 1115 1114 1113 1112 1111 1110 1109 1108 1107 1106 1105 1104
f 1116 1117 1118 1119 1120 1121 1122 1123 1124 1125 1126 1127
f 1128 1129 1141 1140
f 1129 1130 1142 1141
f 1130 1131 1143 1142
f 1131 1132 1144 1143
f 1132 1133 1145 1144
f 1133 1134 1146 1145
f 1134 1135 1147 1146
f 1135 1136 1148 1147
f 1136 1137 1149 1148
f 1137 1138 1150 1149
f 1138 1139 1151 1150
f 1139 1128 1140 1151
f 1139 1138 1137 1136 1135 1134 1133 1132 1131 1130 1129 1128
f 1140 1141 1142 1143 1144 1145 1146 1147 1148 1149 1150 1151
usemtl exhaust_outlet
f 1152 1153 1161 1160
f 1153 1154 1162 1161
f 1154 1155 1163 1162
f 1155 1156 1164 1163
f 1156 1157 1165 1164
f 1157 1158 1166 1165
f 1158 1159 1167 1166
f 1159 1152 1160 1167
f 1159 1158 1157 1156 1155 1154 1153 1152
f 1160 1161 1162 1163 1164 1165 1166 1167
usemtl engine_region
f 1168 1169 1177 1176
f 1169 1170 1178 1177
f 1170 1171 1179 1178
f 1171 1172 1180 1179
f 1172 1173 1181 1180
f 1173 1174 1182 1181
f 1174 1175 1183 1182
f 1175 1168 1176 1183
f 1175 1174 1173 1172 1171 1170 1169 1168
f 1176 1177 1178 1179 1180 1181 1182 1183
usemtl propeller
f 1197 1196 1195 1194 1193 1192 1191 1190 1189 1188 1187 1186 1185 1184
f 1184 1185 1198
f 1185 1186 1198
f 1186 1187 1198
f 1187 1188 1198
f 1188 1189 1198
f 1189 1190 1198
f 1190 1191 1198
f 1191 1192 1198
f 1192 1193 1198
f 1193 1194 1198
f 1194 1195 1198
f 1195 1196 1198
f 1196 1197 1198
f 1197 1184 1198
usemtl propeller_disc
f 1199 1200 1232 1231
f 1200 1201 1233 1232
f 1201 1202 1234 1233
f 1202 1203 1235 1234
f 1203 1204 1236 1235
f 1204 1205 1237 1236
f 1205 1206 1238 1237
f 1206 1207 1239 1238
f 1207 1208 1240 1239
f 1208 1209 1241 1240
f 1209 1210 1242 1241
f 1210 1211 1243 1242
f 1211 1212 1244 1243
f 1212 1213 1245 1244
f 1213 1214 1246 1245
f 1214 1215 1247 1246
f 1215 1216 1248 1247
f 1216 1217 1249 1248
f 1217 1218 1250 1249
f 1218 1219 1251 1250
f 1219 1220 1252 1251
f 1220 1221 1253 1252
f 1221 1222 1254 1253
f 1222 1223 1255 1254
f 1223 1224 1256 1255
f 1224 1225 1257 1256
f 1225 1226 1258 1257
f 1226 1227 1259 1258
f 1227 1228 1260 1259
f 1228 1229 1261 1260
f 1229 1230 1262 1261
f 1230 1199 1231 1262
f 1230 1229 1228 1227 1226 1225 1224 1223 1222 1221 1220 1219 1218 1217 1216 1215 1214 1213 1212 1211 1210 1209 1208 1207 1206 1205 1204 1203 1202 1201 1200 1199
f 1231 1232 1233 1234 1235 1236 1237 1238 1239 1240 1241 1242 1243 1244 1245 1246 1247 1248 1249 1250 1251 1252 1253 1254 1255 1256 1257 1258 1259 1260 1261 1262
usemtl antenna
f 1263 1264 1270 1269
f 1264 1265 1271 1270
f 1265 1266 1272 1271
f 1266 1267 1273 1272
f 1267 1268 1274 1273
f 1268 1263 1269 1274
f 1268 1267 1266 1265 1264 1263
f 1269 1270 1271 1272 1273 1274
f 1275 1276 1277 1278
f 1282 1281 1280 1279
f 1279 1280 1276 1275
f 1280 1281 1277 1276
f 1281 1282 1278 1277
f 1282 1279 1275 1278
f 1283 1284 1285 1286
f 1290 1289 1288 1287
f 1287 1288 1284 1283
f 1288 1289 1285 1284
f 1289 1290 1286 1285
f 1290 1287 1283 1286
